<svg xmlns="http://www.w3.org/2000/svg" viewBox="0 0 256 256">
  <defs>
    <radialGradient id="bg" cx="50%" cy="45%" r="58%">
      <stop offset="0%" stop-color="#0bf7ff" stop-opacity="0.95"/>
      <stop offset="32%" stop-color="#036dff" stop-opacity="0.92"/>
      <stop offset="72%" stop-color="#031033" stop-opacity="0.98"/>
      <stop offset="100%" stop-color="#00040c"/>
    </radialGradient>
    <filter id="glow" x="-50%" y="-50%" width="200%" height="200%">
      <feGaussianBlur stdDeviation="4" result="blur"/>
      <feMerge>
        <feMergeNode in="blur"/>
        <feMergeNode in="SourceGraphic"/>
      </feMerge>
    </filter>
  </defs>
  <rect width="256" height="256" rx="58" fill="#03050a"/>
  <circle cx="128" cy="128" r="108" fill="url(#bg)" stroke="#59f0ff" stroke-width="3"/>
  <circle cx="128" cy="128" r="94" fill="none" stroke="#75cbff" stroke-opacity="0.55" stroke-width="1.5"/>
  <g stroke="#4bdcff" stroke-width="1" stroke-opacity="0.55" fill="#bff7ff" filter="url(#glow)">
    <path d="M48 154 C82 124 101 139 128 88 C153 138 178 124 208 154" fill="none"/>
    <path d="M60 184 C92 160 112 174 128 136 C146 174 168 160 196 184" fill="none"/>
    <path d="M128 24 V232" stroke="#75cbff" stroke-opacity="0.7"/>
    <path d="M43 128 H213" stroke="#75cbff" stroke-opacity="0.24"/>
    <circle cx="128" cy="37" r="3"/>
    <circle cx="128" cy="76" r="3"/>
    <circle cx="128" cy="128" r="5"/>
    <circle cx="128" cy="207" r="3"/>
    <circle cx="76" cy="151" r="2.5"/>
    <circle cx="180" cy="151" r="2.5"/>
    <circle cx="91" cy="181" r="2"/>
    <circle cx="165" cy="181" r="2"/>
  </g>
  <g filter="url(#glow)">
    <path d="M55 198 L111 53 C116 41 140 41 145 53 L201 198" fill="none" stroke="#eaffff" stroke-width="18" stroke-linecap="round" stroke-linejoin="round"/>
    <path d="M83 198 L128 80 L173 198" fill="none" stroke="#41cfff" stroke-width="5" stroke-linecap="round" stroke-linejoin="round"/>
    <circle cx="128" cy="142" r="29" fill="#03194a" stroke="#eaffff" stroke-width="6"/>
    <circle cx="128" cy="142" r="20" fill="none" stroke="#47e5ff" stroke-width="2"/>
  </g>
  <circle cx="128" cy="22" r="8" fill="#ffffff" filter="url(#glow)"/>
</svg>
