<svg xmlns="http://www.w3.org/2000/svg" viewBox="0 0 64 64">
  <defs>
    <radialGradient id="bg" cx="50%" cy="45%" r="62%">
      <stop offset="0%" stop-color="#17324a"/>
      <stop offset="58%" stop-color="#07131d"/>
      <stop offset="100%" stop-color="#020407"/>
    </radialGradient>
    <linearGradient id="line" x1="10" y1="8" x2="54" y2="56">
      <stop stop-color="#f2feff"/>
      <stop offset="0.48" stop-color="#75cbde"/>
      <stop offset="1" stop-color="#2b7eb8"/>
    </linearGradient>
    <filter id="glow" x="-60%" y="-60%" width="220%" height="220%">
      <feGaussianBlur stdDeviation="1.65" result="blur"/>
      <feMerge><feMergeNode in="blur"/><feMergeNode in="SourceGraphic"/></feMerge>
    </filter>
  </defs>
  <rect width="64" height="64" rx="14" fill="url(#bg)"/>
  <circle cx="32" cy="32" r="26" fill="none" stroke="#75cbde" stroke-opacity="0.24"/>
  <circle cx="32" cy="32" r="19" fill="none" stroke="#75cbde" stroke-opacity="0.13"/>
  <path d="M14 52 L32 10 L50 52 M21 52 L25 42 M43 52 L39 42 M25 42 L32 25 L39 42" fill="none" stroke="url(#line)" stroke-width="3.4" stroke-linecap="round" stroke-linejoin="round" filter="url(#glow)"/>
  <path d="M32 19 L26 39 L32 43 L38 39 Z M26 39 L38 39 M21 49 L32 43 L43 49" fill="none" stroke="#75cbde" stroke-opacity="0.82" stroke-width="1.5" stroke-linecap="round"/>
  <g fill="#eafdff" filter="url(#glow)">
    <circle cx="32" cy="19" r="2.4"/>
    <circle cx="26" cy="39" r="1.9"/>
    <circle cx="38" cy="39" r="1.9"/>
    <circle cx="32" cy="43" r="1.7"/>
  </g>
</svg>
